<svg width="16" height="32" viewBox="0 0 16 32" fill="none" xmlns="http://www.w3.org/2000/svg">
<path d="M15.7954 1.39468C15.7954 1.39468 10.394 3.06832 9.05347 4.461V4.62241L13.3364 3.93641L15.7954 1.39468Z" fill="#FFD29C"/>
<path d="M14.3374 2.59085C12.7998 3.06903 11.3016 3.90585 9.29257 4.98516C7.28358 6.06447 12.289 6.02122 12.289 6.02122C12.289 6.02122 15.875 2.11266 14.3374 2.59085Z" fill="#474747"/>
<path d="M15.7935 1.38916L6.10694 32L0.773959 30.6108L9.05547 4.44029C12.4836 4.26379 13.351 3.62621 15.7935 1.38916Z" fill="#55C100"/>
<path d="M5.55165 15.5441L11.0779 16.3364L11.0266 16.4997L5.50301 15.7021L5.55165 15.5441Z" fill="#C4C4C4"/>
<path d="M6.82583 11.5549C6.97407 11.6086 11.8587 13.0301 11.9907 13.109C12.1227 13.1879 11.538 15.5232 11.3143 15.5039C11.0905 15.4845 6.21432 13.9477 6.07739 13.8857C5.94046 13.8236 6.67759 11.5012 6.82583 11.5549Z" fill="#E2E2E2"/>
<path d="M7.00423 10.8953C7.1533 10.9479 12.1221 12.4455 12.2564 12.5183C12.3907 12.5911 12.0548 14.1328 11.8329 14.1052C11.611 14.0775 6.60922 12.4905 6.4709 12.4315C6.33257 12.3726 6.85516 10.8428 7.00423 10.8953Z" fill="#E96D6D"/>
</svg>
