<svg width="130" height="27" viewBox="0 0 130 27" fill="none" xmlns="http://www.w3.org/2000/svg">
<path d="M6.57812 4.9375L11.5 18.0156L16.4102 4.9375H20.2422V22H17.2891V16.375L17.582 8.85156L12.543 22H10.4219L5.39453 8.86328L5.6875 16.375V22H2.73438V4.9375H6.57812ZM37.4505 14.3828H30.4427V19.6328H38.6341V22H27.4778V4.9375H38.552V7.32812H30.4427V12.0391H37.4505V14.3828ZM48.6119 4.9375L53.5337 18.0156L58.4439 4.9375H62.2759V22H59.3228V16.375L59.6158 8.85156L54.5767 22H52.4556L47.4283 8.86328L47.7212 16.375V22H44.7681V4.9375H48.6119ZM79.4842 14.3828H72.4764V19.6328H80.6678V22H69.5116V4.9375H80.5858V7.32812H72.4764V12.0391H79.4842V14.3828Z" fill="white"/>
<path d="M94.488 15.4258H91.1833V22H88.2184V4.9375H94.2184C96.1872 4.9375 97.7067 5.37891 98.777 6.26172C99.8473 7.14453 100.382 8.42188 100.382 10.0938C100.382 11.2344 100.105 12.1914 99.5505 12.9648C99.0036 13.7305 98.238 14.3203 97.2536 14.7344L101.086 21.8477V22H97.9098L94.488 15.4258ZM91.1833 13.0469H94.2302C95.2302 13.0469 96.0114 12.7969 96.5739 12.2969C97.1364 11.7891 97.4177 11.0977 97.4177 10.2227C97.4177 9.30859 97.1559 8.60156 96.6325 8.10156C96.1169 7.60156 95.3434 7.34375 94.3122 7.32812H91.1833V13.0469ZM109.42 22H106.467V4.9375H109.42V22Z" fill="url(#paint0_linear)"/>
<path d="M128.023 12.04L128.789 11.1736C129.149 10.7649 129.037 10.1141 128.538 9.72324C128.372 9.59246 128.182 9.51125 127.99 9.47078C128.141 9.25971 128.215 9.01067 128.19 8.75359C128.162 8.45881 128.013 8.19211 127.771 8.00279C127.273 7.61216 126.529 7.6761 126.113 8.14597L125.796 8.50495C125.728 8.32803 125.615 8.16389 125.45 8.03496C125.204 7.84222 124.899 7.76127 124.603 7.78368C124.54 7.45818 124.326 7.16775 124.01 7.00585C123.734 6.86453 123.416 6.83262 123.115 6.91621C122.813 6.99979 122.564 7.18924 122.414 7.44935L122.177 7.85922C122.073 7.69825 121.928 7.55785 121.74 7.46134C121.171 7.16946 120.454 7.36774 120.143 7.90497L118.908 10.0422C118.468 9.95 117.992 10.0182 117.588 10.2704C117.445 10.359 117.348 10.4949 117.314 10.6525C117.28 10.8102 117.314 10.9708 117.408 11.1049L117.894 11.7958L117.851 11.8702L116.912 11.1021C116.247 10.4692 115.159 10.464 114.487 11.0906C114.366 11.2036 114.299 11.3547 114.298 11.5157C114.297 11.6766 114.363 11.8281 114.483 11.9423L115.175 12.6005C116.099 13.4798 116.264 13.7459 116.088 14.8193L115.875 16.0101C115.808 15.9774 115.73 15.9693 115.657 15.9896C115.582 16.0105 115.519 16.0586 115.481 16.1236L114.036 18.6228C113.998 18.6878 113.99 18.764 114.012 18.8349C114.034 18.9058 114.085 18.9656 114.154 19.001L119.682 21.8367C119.726 21.8591 119.774 21.8705 119.823 21.8705C119.851 21.8705 119.88 21.8667 119.907 21.8591C119.982 21.8382 120.046 21.79 120.083 21.725L120.19 21.5404L120.471 21.761C120.527 21.8044 120.594 21.8255 120.66 21.8255C120.745 21.8255 120.829 21.7913 120.888 21.725L122.82 19.5372C122.87 19.4804 122.894 19.4072 122.887 19.3335C122.88 19.2599 122.842 19.192 122.782 19.1447L122.755 19.1242L123.248 18.5666C123.844 18.5876 124.423 18.3479 124.811 17.9089L128.588 13.6324C128.958 13.2128 128.897 12.5872 128.452 12.2379C128.323 12.1371 128.176 12.0741 128.023 12.04ZM122.934 7.71592C123.088 7.44895 123.444 7.34955 123.727 7.49536C123.915 7.5916 124.029 7.77986 124.029 7.98012C123.944 8.03601 123.862 8.09916 123.793 8.17826L120.727 11.6492L120.687 11.601L122.934 7.71592ZM120.663 8.17167C120.818 7.90431 121.174 7.80543 121.457 7.95085C121.741 8.09653 121.846 8.43205 121.691 8.69901L121.669 8.73817L120.291 11.1207L119.964 10.7245C119.828 10.5306 119.654 10.3744 119.458 10.2566L120.663 8.17167ZM115.595 12.2085L114.903 11.5501C114.888 11.5352 114.888 11.5017 114.904 11.4869C115.117 11.2881 115.39 11.1765 115.7 11.1807C116 11.1821 116.281 11.2935 116.508 11.5086L117.741 12.5182C117.808 12.5737 117.899 12.5967 117.987 12.5821C118.076 12.5671 118.152 12.5152 118.195 12.4412L118.258 12.3313C118.697 13.0227 118.72 13.3678 118.39 14.2204L117.937 15.3497C117.811 15.2565 117.63 15.2726 117.527 15.389L116.635 16.3983L116.425 16.2906L116.672 14.9082C116.881 13.6401 116.63 13.193 115.595 12.2085ZM119.705 21.2137L114.697 18.6447L115.85 16.6505C115.876 16.6848 115.907 16.7157 115.948 16.7366L116.215 16.874L115.594 17.5769C115.544 17.6338 115.52 17.7071 115.527 17.7806C115.534 17.8543 115.572 17.9222 115.633 17.9694L119.726 21.1772L119.705 21.2137ZM120.622 21.1543L116.238 17.7191L117.78 15.9736C117.798 16.0118 117.822 16.0478 117.858 16.0757L122.116 19.4123C122.125 19.4195 122.137 19.4226 122.147 19.4287L120.622 21.1543ZM128.133 13.2759L124.356 17.5523C124.062 17.8856 123.611 18.0526 123.154 18.001C123.053 17.9889 122.955 18.0269 122.891 18.0994L122.301 18.7675L118.418 15.7253L118.945 14.4142C119.411 13.2083 119.257 12.7241 118.444 11.5691L117.901 10.7969C117.889 10.7792 117.896 10.7464 117.915 10.7347C118.165 10.5785 118.464 10.5235 118.758 10.5799C119.052 10.6361 119.305 10.7966 119.484 11.0492L120.103 11.8C120.103 11.8007 120.104 11.8012 120.104 11.8019L120.485 12.2648C120.54 12.3315 120.625 12.371 120.714 12.3726C120.799 12.3665 120.889 12.3369 120.947 12.2721L124.247 8.53462C124.347 8.4215 124.488 8.35163 124.644 8.33818C124.801 8.32434 124.952 8.36929 125.072 8.46329C125.319 8.65749 125.353 9.00553 125.148 9.23914L125.147 9.23967C125.147 9.2398 125.147 9.23993 125.147 9.24007L123.457 11.1542C123.352 11.2726 123.369 11.4482 123.495 11.5467C123.62 11.6453 123.807 11.6293 123.911 11.5107L125.602 9.59642C125.603 9.59589 125.603 9.59523 125.603 9.5947L126.568 8.50232C126.774 8.26844 127.144 8.23654 127.392 8.43112C127.512 8.52539 127.587 8.65788 127.601 8.80448C127.615 8.95108 127.568 9.09412 127.468 9.20737L127.006 9.73089C126.997 9.73972 126.987 9.74605 126.978 9.75541C126.973 9.76095 126.972 9.7678 126.968 9.7736L124.167 12.945C124.063 13.0634 124.08 13.239 124.206 13.3375C124.261 13.3809 124.328 13.402 124.395 13.402C124.479 13.402 124.564 13.3678 124.622 13.3015L127.455 10.093C127.613 9.94591 127.926 9.96859 128.16 10.1516C128.403 10.3427 128.483 10.6475 128.333 10.8171L126.243 13.1846L126.223 13.2063C126.223 13.2065 126.223 13.2066 126.223 13.2067L125.579 13.9364C125.474 14.0548 125.491 14.2304 125.617 14.3288C125.672 14.3721 125.739 14.3934 125.806 14.3934C125.891 14.3934 125.975 14.3592 126.033 14.2929L126.676 13.5648C126.676 13.5647 126.677 13.5647 126.677 13.5645L127.426 12.7224C127.588 12.539 127.878 12.5135 128.073 12.6662C128.268 12.819 128.295 13.0926 128.133 13.2759Z" fill="white"/>
<defs>
<linearGradient id="paint0_linear" x1="65" y1="0" x2="65" y2="27" gradientUnits="userSpaceOnUse">
<stop offset="0.421875" stop-color="#FD1010"/>
<stop offset="0.739583" stop-color="white"/>
</linearGradient>
</defs>
</svg>
