<svg width="436" height="458" viewBox="0 0 436 458" fill="none" xmlns="http://www.w3.org/2000/svg">
<ellipse cx="305.981" cy="38.1597" rx="33.2694" ry="37.4675" fill="#0A0A0A"/>
<ellipse cx="120.06" cy="38.1597" rx="33.2694" ry="37.4675" fill="#0A0A0A"/>
<ellipse cx="222.263" cy="307.013" rx="169.811" ry="145.472" fill="black"/>
<path d="M369.105 151.277C369.26 170.964 365.185 186.959 357.76 199.892C350.336 212.824 339.547 222.723 326.23 230.195C299.578 245.148 262.83 250.362 222.813 250.671C182.799 250.979 141.516 246.368 110.176 231.845C94.5117 224.587 81.3507 214.861 72.0668 202.055C62.7864 189.253 57.3597 173.344 57.2042 153.68C56.8931 114.343 76.4699 81.1841 106.133 57.7674C135.801 34.3468 175.54 20.6912 215.474 20.3835C295.373 19.7679 368.483 72.5993 369.105 151.277Z" fill="white" stroke="#E8E8E8"/>
<path d="M234.399 165.065C234.399 168.615 227.666 174.398 222.079 174.398C216.492 174.398 210.127 168.615 210.127 165.065C210.127 161.515 216.492 161.541 222.079 161.541C227.666 161.541 234.399 161.515 234.399 165.065Z" fill="black"/>
<path d="M235.714 204.706C235.714 209.564 230.705 200.785 222.882 200.785C215.059 200.785 208.099 210.82 208.099 205.962C208.099 201.104 214.44 197.166 222.263 197.166C230.086 197.166 235.714 204.706 235.714 204.706Z" fill="black"/>
<ellipse cx="218.082" cy="340.522" rx="201.205" ry="83.2825" fill="white"/>
<rect x="1.34122" y="278.983" width="433.481" height="178.269" fill="white" stroke="#9B9B9B"/>
<ellipse cx="329.35" cy="283.305" rx="29.5125" ry="23.7084" fill="black"/>
<ellipse cx="113.128" cy="280.948" rx="29.5125" ry="23.7084" fill="black"/>
<path d="M106.469 412.572C105.909 413.132 104.189 413.412 101.309 413.412C99.309 413.812 96.949 413.492 94.229 412.452L91.709 411.612L87.989 409.812C87.669 409.812 87.469 409.812 87.389 409.812C87.309 409.892 87.109 409.812 86.789 409.572C86.309 409.172 85.749 408.852 85.109 408.612C83.509 407.492 82.389 406.492 81.749 405.612C79.189 401.532 77.909 398.132 77.909 395.412C77.909 395.092 78.309 394.492 79.109 393.612C80.709 391.692 82.709 390.732 85.109 390.732C86.069 390.812 86.829 391.132 87.389 391.692L91.349 396.852C91.989 397.492 92.709 398.132 93.509 398.772L95.069 400.452L97.469 402.492C97.789 402.652 98.109 402.732 98.429 402.732C98.749 402.892 99.629 403.092 101.069 403.332C102.669 402.932 104.029 402.492 105.149 402.012C105.869 401.292 106.509 400.732 107.069 400.332L108.749 398.412C108.909 398.252 109.189 397.612 109.589 396.492C109.589 395.452 109.589 394.772 109.589 394.452C109.669 394.052 109.549 393.052 109.229 391.452C109.149 391.212 108.589 390.572 107.549 389.532C107.069 388.572 106.389 387.532 105.509 386.412C105.029 385.932 102.709 384.652 98.549 382.572L96.269 381.252L94.109 379.332C93.069 379.012 91.589 377.932 89.669 376.092C88.869 375.532 88.269 375.092 87.869 374.772C87.389 374.612 86.069 373.252 83.909 370.692C83.909 370.532 83.229 369.012 81.869 366.132L80.789 361.452L81.269 358.332C80.789 356.252 80.629 354.692 80.789 353.652C81.109 353.172 81.509 352.212 81.989 350.772C81.749 349.572 82.829 347.212 85.229 343.692C85.229 343.212 86.989 341.292 90.509 337.932L94.589 335.772L96.509 334.932C97.229 334.852 98.189 334.732 99.389 334.572C100.669 334.412 102.549 334.412 105.029 334.572C107.509 334.732 109.069 335.052 109.709 335.532C110.269 335.772 111.869 336.852 114.509 338.772C118.029 341.892 119.949 344.692 120.269 347.172C121.629 351.252 121.709 355.612 120.509 360.252C120.509 360.572 119.389 361.212 117.149 362.172L114.149 362.052C111.589 361.732 109.149 360.412 106.829 358.092C106.189 357.692 105.709 356.572 105.389 354.732C105.309 352.812 104.909 351.652 104.189 351.252C104.109 351.172 103.789 350.452 103.229 349.092C101.869 347.332 100.949 346.452 100.469 346.452C100.069 346.452 99.589 346.572 99.029 346.812C96.149 349.132 94.629 351.732 94.469 354.612C93.909 356.932 94.629 359.772 96.629 363.132C97.509 364.412 98.069 365.052 98.309 365.052C98.789 365.852 99.709 366.852 101.069 368.052L102.749 369.852L107.789 373.572L109.829 375.612L112.109 377.052C113.389 377.612 114.629 378.372 115.829 379.332C117.429 380.532 119.389 382.772 121.709 386.052C122.189 386.772 122.829 388.932 123.629 392.532V397.212L123.029 399.972C122.629 400.372 122.189 401.172 121.709 402.372C121.709 402.452 121.269 403.532 120.389 405.612C120.149 406.012 119.189 406.852 117.509 408.132C115.109 410.052 112.429 411.492 109.469 412.452C108.829 412.612 107.829 412.652 106.469 412.572ZM146.506 382.092L146.866 392.892C148.146 397.452 150.026 400.652 152.506 402.492C152.906 402.892 153.826 403.332 155.266 403.812L158.266 404.532C158.666 404.532 159.106 404.372 159.586 404.052C160.146 403.892 160.546 403.692 160.786 403.452C161.346 402.732 161.906 402.092 162.466 401.532C163.026 400.972 163.266 400.692 163.186 400.692C163.506 400.372 163.626 399.852 163.546 399.132C163.786 398.892 164.106 398.372 164.506 397.572C165.386 393.092 166.266 390.212 167.146 388.932C167.466 385.412 167.626 383.172 167.626 382.212C167.626 378.852 166.746 374.732 164.986 369.852C164.026 368.732 163.546 365.172 163.546 359.172C163.066 357.972 162.786 356.892 162.706 355.932C162.626 354.892 162.346 353.812 161.866 352.692C161.466 351.492 161.146 350.692 160.906 350.292C160.666 349.892 160.506 349.532 160.426 349.212C160.426 348.812 160.266 348.332 159.946 347.772C158.666 345.852 156.706 346.892 154.066 350.892L152.026 354.492C152.026 354.652 151.626 356.132 150.826 358.932C149.546 363.412 148.906 365.932 148.906 366.492C148.986 366.972 148.546 368.612 147.586 371.412C147.506 371.652 147.466 372.212 147.466 373.092C147.546 373.972 147.386 375.212 146.986 376.812C146.666 378.332 146.506 380.092 146.506 382.092ZM132.826 373.332L133.666 364.452C133.666 363.972 133.826 363.252 134.146 362.292C134.546 361.332 134.786 360.732 134.866 360.492C134.866 360.332 134.946 360.052 135.106 359.652C135.106 357.492 135.706 355.612 136.906 354.012C138.746 349.772 140.146 346.612 141.106 344.532C142.066 342.452 143.106 340.732 144.226 339.372C144.306 338.972 145.146 338.332 146.746 337.452C150.026 335.692 153.106 334.812 155.986 334.812C158.866 334.812 161.626 335.252 164.266 336.132C165.146 336.292 166.306 336.892 167.746 337.932C169.266 338.972 170.146 339.532 170.386 339.612C171.746 340.412 173.146 342.132 174.586 344.772C176.106 347.332 176.906 349.212 176.986 350.412C177.146 351.612 177.626 353.532 178.426 356.172C179.306 358.732 179.746 360.652 179.746 361.932C179.746 363.132 179.946 364.972 180.346 367.452C180.826 369.932 181.026 371.932 180.946 373.452C180.466 384.732 179.026 392.892 176.626 397.932C176.146 401.452 175.226 403.692 173.866 404.652L173.626 406.332C173.546 407.292 173.066 408.372 172.186 409.572C171.386 410.772 170.346 411.692 169.066 412.332C168.826 412.572 167.226 412.932 164.266 413.412C160.026 414.212 157.226 414.612 155.866 414.612C154.106 415.172 151.866 415.052 149.146 414.252C146.506 413.532 144.986 413.132 144.586 413.052C144.186 413.052 143.306 412.612 141.946 411.732C140.666 410.932 139.826 410.292 139.426 409.812C138.146 408.852 137.386 408.092 137.146 407.532L135.466 404.172C134.426 403.132 133.706 401.652 133.306 399.732C132.906 397.732 132.506 396.452 132.106 395.892C131.706 395.012 131.346 394.092 131.026 393.132C131.106 392.572 131.146 391.572 131.146 390.132V388.932C130.826 387.732 130.906 386.572 131.386 385.452C131.466 384.892 131.506 384.212 131.506 383.412C131.586 382.532 131.706 381.292 131.866 379.692V378.132C132.586 375.732 132.906 374.132 132.826 373.332ZM212.06 357.372C211.5 360.092 211.22 362.452 211.22 364.452C211.06 365.572 210.86 366.332 210.62 366.732C210.46 367.132 210.38 368.052 210.38 369.492C210.38 370.932 210.82 371.772 211.7 372.012C212.58 372.012 213.86 371.532 215.54 370.572L218.06 368.292C218.94 367.572 220.98 366.252 224.18 364.332L227.18 361.452L228.38 359.892L228.86 358.812C229.5 357.772 229.7 356.692 229.46 355.572L229.22 353.532C228.66 351.052 228.26 349.612 228.02 349.212C227.86 348.732 227.58 348.252 227.18 347.772C226.78 347.212 226.34 346.732 225.86 346.332C225.38 345.932 225.1 345.652 225.02 345.492L221.3 343.692C221.22 343.612 220.74 343.492 219.86 343.332C218.5 342.772 216.58 342.692 214.1 343.092L213.38 346.932C213.38 347.412 213.14 348.252 212.66 349.452C212.26 350.652 212.18 351.532 212.42 352.092C212.34 352.332 212.3 352.812 212.3 353.532C212.3 354.172 212.22 355.052 212.06 356.172V357.372ZM209.78 380.652C209.14 380.972 208.74 381.132 208.58 381.132C208.5 381.372 208.46 381.812 208.46 382.452V383.892C208.46 384.452 208.1 386.172 207.38 389.052V390.252C207.38 391.452 207.18 392.412 206.78 393.132L206.3 398.412L205.58 401.412C205.42 401.892 205.38 402.332 205.46 402.732C205.62 403.132 205.74 404.612 205.82 407.172C205.98 409.652 205.9 411.452 205.58 412.572L204.86 413.652C203.26 414.132 202.22 414.252 201.74 414.012C201.26 413.772 200.46 413.612 199.34 413.532C198.22 413.452 197.58 413.372 197.42 413.292C197.34 413.292 196.94 413.132 196.22 412.812C195.58 412.572 195.14 412.372 194.9 412.212C194.74 412.052 194.46 411.812 194.06 411.492C193.02 410.772 192.5 409.212 192.5 406.812C192.34 406.332 192.38 405.772 192.62 405.132C192.14 404.892 191.98 404.252 192.14 403.212C192.38 402.732 192.5 401.972 192.5 400.932C192.5 399.892 192.62 399.052 192.86 398.412V396.492C192.86 395.772 193.14 394.292 193.7 392.052C193.7 391.412 193.82 390.852 194.06 390.372C193.9 390.212 194.1 389.532 194.66 388.332C194.5 388.092 194.7 386.932 195.26 384.852C195.02 384.612 194.98 383.892 195.14 382.692C195.3 381.412 195.5 380.412 195.74 379.692C195.74 378.172 195.86 377.252 196.1 376.932C196.02 376.692 195.9 375.932 195.74 374.652L195.98 373.212C195.98 372.252 196.34 370.772 197.06 368.772C197.7 364.212 198.02 361.732 198.02 361.332C199.14 356.692 199.7 353.812 199.7 352.692C199.94 352.612 200.18 351.852 200.42 350.412C200.66 348.892 200.58 347.812 200.18 347.172C196.58 348.532 193.58 350.132 191.18 351.972C189.58 353.332 188.5 353.852 187.94 353.532C186.82 352.892 186.26 351.972 186.26 350.772L185.78 348.852C185.7 348.772 185.5 348.332 185.18 347.532C184.78 346.652 184.62 346.012 184.7 345.612C184.7 345.212 184.66 344.692 184.58 344.052C184.42 343.332 184.42 342.852 184.58 342.612C185.3 341.252 186.26 340.252 187.46 339.612L190.34 337.572L192.38 336.372C192.54 336.372 194.06 335.532 196.94 333.852C197.1 333.532 197.7 333.252 198.74 333.012C199.78 332.772 202.1 332.052 205.7 330.852C208.1 330.612 209.5 330.492 209.9 330.492C212.46 330.172 214.62 330.412 216.38 331.212C217.58 331.532 218.26 331.692 218.42 331.692C218.66 331.612 218.94 331.612 219.26 331.692C219.66 331.772 219.94 331.812 220.1 331.812C220.1 331.972 220.46 332.052 221.18 332.052L223.46 332.892C223.86 332.892 224.38 333.092 225.02 333.492C225.5 333.412 226.14 333.612 226.94 334.092C227.82 334.492 229.06 335.092 230.66 335.892C232.34 336.692 233.18 337.372 233.18 337.932C233.66 338.092 234.18 338.532 234.74 339.252L236.18 340.692L238.46 343.692C238.62 343.772 238.98 344.172 239.54 344.892C240.34 346.252 240.78 347.052 240.86 347.292C240.94 347.532 241.02 347.772 241.1 348.012C241.18 348.172 241.5 348.852 242.06 350.052C243.18 352.292 243.62 354.252 243.38 355.932C243.38 356.012 242.98 357.252 242.18 359.652C240.74 363.892 238.54 367.252 235.58 369.732C234.94 370.212 234.1 370.852 233.06 371.652C232.02 372.372 231.18 373.012 230.54 373.572C227.5 375.412 225.7 376.572 225.14 377.052C224.66 377.532 224.22 377.932 223.82 378.252L222.5 378.852L222.74 379.572C222.74 379.252 222.94 379.412 223.34 380.052C223.82 380.612 224.14 381.052 224.3 381.372C224.3 381.772 224.7 382.252 225.5 382.812C225.66 382.732 225.86 382.812 226.1 383.052C226.58 383.532 226.82 384.292 226.82 385.332C227.38 385.652 228.22 386.612 229.34 388.212C230.46 389.012 231.42 390.132 232.22 391.572C232.78 392.212 233.22 392.652 233.54 392.892C233.86 393.372 234.5 394.012 235.46 394.812C236.42 395.612 237.06 396.172 237.38 396.492C237.7 396.732 238.06 397.012 238.46 397.332C239.9 398.452 240.9 399.292 241.46 399.852L242.9 400.812C245.86 403.692 247.42 405.252 247.58 405.492C247.5 406.052 246.94 406.892 245.9 408.012C245.82 409.292 243.98 410.372 240.38 411.252C239.18 411.252 237.54 410.692 235.46 409.572C233.38 408.532 231.78 407.412 230.66 406.212C227.14 403.652 224.82 401.652 223.7 400.212C220.42 396.932 218.06 393.772 216.62 390.732C216.3 390.492 215.9 390.092 215.42 389.532C215.02 388.972 214.62 388.532 214.22 388.212L212.66 385.212C211.22 383.212 210.5 382.212 210.5 382.212L209.78 380.652ZM269.319 355.572C269.319 357.172 268.759 361.572 267.639 368.772L267.279 370.452C267.599 370.292 268.239 369.732 269.199 368.772C270.719 367.412 273.119 365.772 276.399 363.852L278.199 362.532L281.919 360.972L285.999 358.452C285.839 358.292 286.039 357.892 286.599 357.252C288.199 354.532 289.159 352.252 289.479 350.412C289.479 349.292 289.319 348.492 288.999 348.012C288.759 347.452 287.799 347.092 286.119 346.932C285.879 346.692 285.119 346.452 283.839 346.212C280.639 345.972 277.959 346.252 275.799 347.052H274.839L273.039 347.532H270.999L270.399 350.772C270.399 350.932 270.199 351.732 269.799 353.172C269.799 353.812 269.639 354.612 269.319 355.572ZM252.039 380.892C252.279 380.172 252.679 377.612 253.239 373.212L255.519 359.772C255.679 359.452 255.879 358.612 256.119 357.252C256.119 356.372 256.199 355.492 256.359 354.612C256.599 353.652 256.719 352.012 256.719 349.692L255.279 348.732L252.999 347.652C252.039 347.172 251.039 346.412 249.999 345.372C249.599 345.132 249.479 344.532 249.639 343.572C249.799 342.532 250.399 341.732 251.439 341.172C251.679 341.172 252.519 340.892 253.959 340.332C254.439 340.332 255.239 339.972 256.359 339.252C256.599 339.252 257.319 338.892 258.519 338.172L263.799 336.252C264.199 336.252 264.839 336.052 265.719 335.652C266.679 335.252 267.639 335.012 268.599 334.932L273.279 334.572C275.679 334.172 277.759 334.292 279.519 334.932C280.719 334.932 281.839 335.172 282.879 335.652C283.599 335.652 284.679 335.932 286.119 336.492C287.159 336.652 288.239 337.092 289.359 337.812C289.919 337.812 290.439 337.972 290.919 338.292C291.879 339.012 292.879 339.612 293.919 340.092L296.799 342.612C298.399 343.892 299.879 345.652 301.239 347.892C302.759 349.492 302.719 351.892 301.119 355.092C301.039 355.572 300.719 356.332 300.159 357.372C297.759 362.252 293.359 367.092 286.959 371.892L283.359 373.332L277.359 376.812C278.079 377.932 279.559 380.052 281.799 383.172L291.399 395.532L292.719 397.812L295.839 401.532C296.079 402.092 296.759 402.772 297.879 403.572L299.799 405.612C301.559 407.132 302.239 408.812 301.839 410.652C301.519 412.492 300.399 413.412 298.479 413.412L295.599 413.052L289.839 411.252L287.919 409.332C286.159 408.452 284.799 407.532 283.839 406.572C282.959 405.532 281.679 404.212 279.999 402.612C278.559 401.652 276.599 399.692 274.119 396.732C274.119 396.652 273.879 396.012 273.399 394.812C272.439 394.012 271.599 392.212 270.879 389.412C270.799 389.332 270.679 389.172 270.519 388.932C270.359 388.692 270.079 388.332 269.679 387.852C269.359 387.292 269.119 386.812 268.959 386.412C268.479 384.252 267.639 382.372 266.439 380.772H265.959C265.959 381.252 265.799 381.932 265.479 382.812V385.212L264.519 392.172L262.839 400.812C262.839 401.052 262.719 401.572 262.479 402.372C262.319 403.172 262.239 403.652 262.239 403.812C262.319 403.892 262.359 404.332 262.359 405.132C262.359 405.852 262.279 406.452 262.119 406.932C262.119 407.572 261.879 408.612 261.399 410.052C260.999 411.492 260.359 412.412 259.479 412.812C258.679 413.292 257.159 413.332 254.919 412.932C254.119 412.612 253.039 411.452 251.679 409.452C251.039 409.212 250.279 407.892 249.399 405.492C249.559 404.052 249.639 403.172 249.639 402.852C249.639 402.532 249.599 402.092 249.519 401.532C249.599 400.092 249.679 398.892 249.759 397.932V397.092C249.759 396.932 249.799 396.732 249.879 396.492C249.959 396.172 250.039 395.732 250.119 395.172C250.279 394.532 250.439 394.012 250.599 393.612C250.759 392.972 250.839 392.052 250.839 390.852C250.839 389.652 251.119 388.492 251.679 387.372C251.679 386.332 251.799 384.172 252.039 380.892ZM335.699 371.892C335.699 370.772 335.739 369.852 335.819 369.132C336.219 365.212 336.499 362.732 336.659 361.692C336.899 360.652 337.019 360.012 337.019 359.772V354.612C337.259 354.292 337.499 352.332 337.739 348.732C337.739 344.892 337.899 342.052 338.219 340.212C338.219 339.012 338.619 337.892 339.419 336.852C340.459 335.092 341.699 333.852 343.139 333.132H343.259C344.459 332.812 345.659 332.852 346.859 333.252C348.139 333.652 348.859 333.892 349.019 333.972C349.179 333.972 349.379 334.052 349.619 334.212C349.939 334.292 350.139 334.372 350.219 334.452C350.379 334.452 350.539 334.532 350.699 334.692C350.939 334.772 351.099 334.892 351.179 335.052C351.339 335.132 351.499 335.252 351.659 335.412C351.819 335.492 351.939 335.612 352.019 335.772C352.819 337.372 353.379 342.652 353.699 351.612C353.939 353.052 354.059 355.372 354.059 358.572C354.059 361.692 354.019 363.812 353.939 364.932V366.132C353.779 367.572 353.699 368.652 353.699 369.372V370.212C353.699 371.732 353.579 372.892 353.339 373.692C353.339 375.532 353.139 377.252 352.739 378.852C352.739 379.492 352.539 380.532 352.139 381.972C351.819 383.332 351.659 384.452 351.659 385.332C351.739 385.732 351.379 387.412 350.579 390.372C350.739 390.692 350.459 391.932 349.739 394.092C349.739 394.972 349.459 396.012 348.899 397.212C348.339 398.332 347.859 399.452 347.459 400.572C347.059 401.612 346.819 402.212 346.739 402.372C346.259 404.852 344.979 407.532 342.899 410.412L340.979 412.332C341.139 412.492 340.939 412.852 340.379 413.412C339.899 413.972 337.499 415.412 333.179 417.732C333.099 417.812 332.259 418.052 330.659 418.452C329.139 418.852 327.379 419.052 325.379 419.052C323.379 419.052 321.459 418.732 319.619 418.092C318.499 417.852 317.499 417.452 316.619 416.892C316.219 416.492 315.659 416.092 314.939 415.692C314.539 415.692 313.379 414.972 311.459 413.532C311.139 413.292 310.099 411.812 308.339 409.092C307.779 407.812 307.459 407.132 307.379 407.052C307.379 406.892 307.259 406.612 307.019 406.212C306.859 405.812 306.739 404.892 306.659 403.452C306.499 400.252 307.579 398.652 309.899 398.652C312.299 398.652 314.539 399.852 316.619 402.252C317.259 402.892 317.659 403.332 317.819 403.572C317.979 403.732 318.339 404.092 318.899 404.652C319.539 405.212 320.019 405.572 320.339 405.732C320.739 405.892 321.219 406.092 321.779 406.332C322.419 406.572 323.019 406.692 323.579 406.692C324.139 406.692 324.859 406.532 325.739 406.212C326.699 405.812 327.339 405.332 327.659 404.772C327.659 403.972 328.099 402.932 328.979 401.652C329.939 400.372 330.459 399.652 330.539 399.492C330.779 398.372 331.019 397.572 331.259 397.092C331.739 395.732 332.139 393.932 332.459 391.692C332.619 391.532 332.459 390.532 331.979 388.692C331.979 388.372 331.299 388.012 329.939 387.612C328.659 387.132 327.539 386.852 326.579 386.772C324.979 387.092 322.939 386.292 320.459 384.372C319.419 383.572 318.779 382.972 318.539 382.572C318.299 382.092 318.059 381.772 317.819 381.612C317.659 381.452 317.499 381.172 317.339 380.772C315.659 377.972 314.819 376.172 314.819 375.372L314.339 374.172C314.339 373.372 314.019 372.652 313.379 372.012C313.379 371.852 313.259 370.412 313.019 367.692C312.459 365.612 312.179 363.732 312.179 362.052V360.132L312.299 357.612C312.139 356.972 312.179 355.692 312.419 353.772V349.212L312.539 347.412V344.892C312.619 344.812 312.659 344.412 312.659 343.692L312.779 342.492C312.779 341.692 312.819 341.052 312.899 340.572C312.899 337.212 314.659 335.252 318.179 334.692C320.899 334.452 322.739 334.732 323.699 335.532C325.539 337.132 326.339 340.452 326.099 345.492C326.099 346.932 326.019 348.132 325.859 349.092C326.339 350.612 326.459 351.932 326.219 353.052C326.379 353.612 326.459 354.172 326.459 354.732V356.532C326.459 356.852 326.579 358.332 326.819 360.972C327.139 363.612 327.459 365.412 327.779 366.372C327.779 367.412 327.939 368.412 328.259 369.372C328.259 370.012 328.699 371.212 329.579 372.972C330.299 376.572 331.659 378.252 333.659 378.012C334.459 377.852 335.099 376.492 335.579 373.932C335.819 373.692 335.859 373.012 335.699 371.892Z" fill="#474747"/>
<path d="M161.317 134.728C165.157 153.169 158.119 168.909 142.181 167.383C126.244 165.857 118.735 149.717 124.717 126.072C130.839 108.726 147.13 85.1878 158.013 97.1548C162.447 102.03 156.071 109.536 161.317 134.728Z" fill="black"/>
<path d="M264.693 134.763C260.872 153.208 267.926 168.94 283.862 167.398C299.799 165.855 307.29 149.708 301.284 126.069C295.143 108.729 278.828 85.208 267.957 97.1861C263.529 102.065 269.913 109.565 264.693 134.763Z" fill="black"/>
<ellipse cx="282.303" cy="127.416" rx="4.87115" ry="6.04997" fill="white"/>
<ellipse cx="148.573" cy="127.416" rx="4.87115" ry="6.04997" fill="white"/>
</svg>
